<?xml version="1.0" encoding="utf-8"?>
<!-- Generator: Adobe Illustrator 21.0.0, SVG Export Plug-In . SVG Version: 6.00 Build 0)  -->
<svg version="1.1" id="Layer_1" xmlns="http://www.w3.org/2000/svg" xmlns:xlink="http://www.w3.org/1999/xlink" x="0px" y="0px"
	 viewBox="0 0 216 216" style="enable-background:new 0 0 216 216;" xml:space="preserve">
<style type="text/css">
	.st0{fill:none;stroke:#4C8CCA;stroke-width:1.75;}
	.st1{fill:none;stroke:#4C8CCA;stroke-width:1.75;stroke-linejoin:round;}
	.st2{fill:none;stroke:#4C8CCA;stroke-width:1.75;stroke-linecap:round;}
	.st3{fill:none;stroke:#4C8CCA;stroke-width:1.75;stroke-miterlimit:10;}
	.st4{fill:none;stroke:#4C8CCA;stroke-width:1.75;stroke-linecap:round;stroke-miterlimit:10;}
	.st5{fill:#4C8CCA;}
</style>
<g>
	<g>
		<g>
			<path class="st0" d="M156.4,115.3V58.9c0-1.5-1.2-2.6-2.6-2.6H62.6c-1.5,0-2.6,1.2-2.6,2.6v56.4H156.4z"/>
			<path class="st0" d="M97.9,126.7H154c1.6,0,2.5-1.6,2.5-3.2v-8.3H59.9v8.1c0,1.6,1.6,3.3,3.2,3.3h4"/>
			<path class="st0" d="M93.1,139.3"/>
			<path class="st0" d="M123.3,139.3c-0.9-0.4-1.9-0.8-2.5-1.2c-1.1-0.6-1.3-0.7-1.7-2.7c-0.4-2.2-0.1-6.6-0.2-8.6l-21.4-0.1"/>
			<line class="st0" x1="98.2" y1="139.3" x2="126" y2="139.3"/>
		</g>
		<g>
			<line class="st0" x1="118.5" y1="74" x2="118.5" y2="68.4"/>
			<line class="st0" x1="113.2" y1="77.4" x2="108.4" y2="74.6"/>
			<line class="st0" x1="113.5" y1="83.7" x2="108.7" y2="86.5"/>
			<line class="st0" x1="119.1" y1="86.5" x2="119.1" y2="92.1"/>
			<line class="st0" x1="124.1" y1="76.8" x2="128.9" y2="74"/>
			<g>
				<line class="st0" x1="136.2" y1="95.7" x2="144.2" y2="103.7"/>
				<polygon class="st0" points="121.7,81.2 145.1,91.1 135.7,95.2 131.6,104.6 				"/>
			</g>
		</g>
		<g>
			<path class="st1" d="M70.9,148.7h-8.3c-1.5,0-2.7-1.2-2.7-2.7v-12.3c0-1.5,1.2-2.7,2.7-2.7h8.3"/>
			<path class="st2" d="M67.4,124v27.8c0,2.6,2.1,4.7,4.7,4.7h21.6c2.6,0,4.7-2.1,4.7-4.7V124H67.4z"/>
			<g>
				<path class="st0" d="M88,110.2c-2.6,3.2,2.6,6.3,0,9.5"/>
				<path class="st0" d="M82.8,119.7c2.6-3.2-2.6-6.3,0-9.5"/>
				<path class="st0" d="M77.7,119.7c2.6-3.2-2.6-6.3,0-9.5"/>
			</g>
		</g>
		<g>
			<line class="st3" x1="132.4" y1="147.4" x2="137.3" y2="147.4"/>
			<line class="st4" x1="150.3" y1="157.1" x2="151.7" y2="160.7"/>
			<line class="st4" x1="119.1" y1="157" x2="117.7" y2="160.7"/>
			<path class="st3" d="M155.9,145h-18.5c-0.5,0-0.9,0.4-0.9,0.9v3.5c0,0,0,0,0,0v3.7c0,1.9,1.6,3.5,3.5,3.5h13.3
				c1.9,0,3.5-1.6,3.5-3.5v-3.7v0.6v-4.1C156.8,145.4,156.4,145,155.9,145z"/>
			<path class="st3" d="M131.6,145H113c-0.5,0-0.9,0.4-0.9,0.9v3.5c0,0,0,0,0,0v3.7c0,1.9,1.6,3.5,3.5,3.5h13.3
				c1.9,0,3.5-1.6,3.5-3.5v-3.7v0.6v-4.1C132.5,145.4,132.1,145,131.6,145z"/>
		</g>
	</g>
	<g>
		<g>
			<path class="st5" d="M80.7,138l-0.9-1.2l-2.4,1.8l0.9,1.2l1.7-1.3l1.1,1.4l-1.7,1.3l1,1.3l1.2-0.9l1.5,2l-4.7,3.5l-1.5-2l1.2-0.9
				l-2.9-3.9l-1.2,0.9l-1.5-1.9l7.8-5.9l2.4,3.1L80.7,138z"/>
		</g>
		<g>
			<g>
				<path class="st5" d="M86.3,146.9l-0.9-1.2l0.5-6.8l-1.6,1.2l1.1,1.5l-2,1.5l-2.5-3.3l6.9-5.2l0.9,1.2l-0.6,6.8l1.8-1.3l-1.1-1.5
					l2-1.4l2.4,3.2L86.3,146.9z"/>
			</g>
		</g>
	</g>
</g>
</svg>
