<?xml version="1.0" encoding="utf-8"?>
<!-- Generator: Adobe Illustrator 21.0.0, SVG Export Plug-In . SVG Version: 6.00 Build 0)  -->
<svg version="1.1" id="Layer_1" xmlns="http://www.w3.org/2000/svg" xmlns:xlink="http://www.w3.org/1999/xlink" x="0px" y="0px"
	 viewBox="0 0 216 216" style="enable-background:new 0 0 216 216;" xml:space="preserve">
<style type="text/css">
	.st0{fill:none;stroke:#4C8CCA;stroke-width:1.5;stroke-linecap:round;stroke-linejoin:round;}
	.st1{fill:none;stroke:#4C8CCA;stroke-width:1.5;stroke-linejoin:round;}
	.st2{fill:#4C8CCA;}
</style>
<g>
	<g>
		<g>
			<path class="st0" d="M95.8,92c0.2,4.2,0.2,3.8-0.3,8.6c-0.7,6.7-2.9,15-2.9,15c-0.4,1.6,0.3,3.7,1.7,4.6c0,0,6.2,4.2,8.4,10.2
				c1,2.7,1.2,4.9,1.2,4.9c0.2,1.6,1,3,1.9,3s1.6,0,1.6-0.1s0-0.1,0-0.1"/>
		</g>
		<g>
			<path class="st0" d="M108.9,138C108.9,138,108.9,138.1,108.9,138c0,0.1,0.7,0.2,1.6,0.2s1.7-1.3,1.9-3c0,0,0.2-2.2,1.2-4.9
				c2.3-6,8.4-10.2,8.4-10.2c1.4-0.9,2.1-3,1.7-4.6c0,0-2.3-8.3-2.9-15c-0.5-4.8-0.6-4.4-0.3-8.6"/>
		</g>
		<g>
			<path class="st0" d="M95.4,58v23.7c0,1.7,1.3,3,3,3h19.6c1.7,0,3-1.3,3-3V58"/>
		</g>
		<g>
			<path class="st0" d="M121.9,87.2c0-1.7-1.4-3-3-3H97.3c-1.7,0-3,1.3-3,3v2c0,1.6,1.3,3,3,3h21.6c1.6,0,3-1.4,3-3V87.2z"/>
		</g>
		<g>
			<path class="st1" d="M152.8,111.8c0,24.6-20,40.6-44.6,40.6c-24.6,0-44.6-16-44.6-40.6"/>
		</g>
		<g>
			<line class="st0" x1="67" y1="152.2" x2="149.3" y2="152.2"/>
		</g>
		<g>
			<g>
				<path class="st0" d="M67.3,109.2c0,1.7-1.3,3-3,3h-2.6c-1.7,0-3-1.3-3-3v-2.6c0-1.6,1.3-3,3-3h2.6c1.7,0,3,1.4,3,3V109.2z"/>
			</g>
			<g>
				<path class="st0" d="M157.6,109.2c0,1.7-1.3,3-3,3h-2.6c-1.6,0-3-1.3-3-3v-2.6c0-1.6,1.4-3,3-3h2.6c1.7,0,3,1.4,3,3V109.2z"/>
			</g>
		</g>
		<g>
			<path class="st2" d="M112.5,153.5c0,1.7-1.4,3-3,3h-2.6c-1.7,0-3-1.3-3-3v-2.6c0-1.6,1.3-3,3-3h2.6c1.6,0,3,1.4,3,3V153.5z"/>
			<path class="st0" d="M112.5,153.5c0,1.7-1.4,3-3,3h-2.6c-1.7,0-3-1.3-3-3v-2.6c0-1.6,1.3-3,3-3h2.6c1.6,0,3,1.4,3,3V153.5z"/>
		</g>
		<g>
			<g>
				<path class="st2" d="M67.7,153.5c0,1.7-1.3,3-3,3h-2.6c-1.7,0-3-1.3-3-3v-2.6c0-1.6,1.3-3,3-3h2.6c1.7,0,3,1.4,3,3V153.5z"/>
				<path class="st0" d="M67.7,153.5c0,1.7-1.3,3-3,3h-2.6c-1.7,0-3-1.3-3-3v-2.6c0-1.6,1.3-3,3-3h2.6c1.7,0,3,1.4,3,3V153.5z"/>
			</g>
			<g>
				<path class="st2" d="M157.2,153.5c0,1.7-1.4,3-3,3h-2.6c-1.6,0-3-1.3-3-3v-2.6c0-1.6,1.4-3,3-3h2.6c1.6,0,3,1.4,3,3V153.5z"/>
				<path class="st0" d="M157.2,153.5c0,1.7-1.4,3-3,3h-2.6c-1.6,0-3-1.3-3-3v-2.6c0-1.6,1.4-3,3-3h2.6c1.6,0,3,1.4,3,3V153.5z"/>
			</g>
		</g>
		<g>
			<line class="st0" x1="108.1" y1="138.2" x2="108.1" y2="112.7"/>
		</g>
		<g>
			<circle class="st0" cx="108.1" cy="109.8" r="2.8"/>
		</g>
	</g>
</g>
</svg>
