<?xml version="1.0" encoding="utf-8"?>
<!-- Generator: Adobe Illustrator 21.0.0, SVG Export Plug-In . SVG Version: 6.00 Build 0)  -->
<svg version="1.1" id="Layer_1" xmlns="http://www.w3.org/2000/svg" xmlns:xlink="http://www.w3.org/1999/xlink" x="0px" y="0px"
	 viewBox="0 0 216 216" style="enable-background:new 0 0 216 216;" xml:space="preserve">
<style type="text/css">
	.st0{fill:none;stroke:#4C8CCA;stroke-width:1.5;stroke-linecap:round;stroke-linejoin:round;}
	.st1{fill:none;stroke:#4C8CCA;stroke-width:1.5;stroke-linecap:round;stroke-linejoin:round;stroke-miterlimit:10;}
</style>
<g>
	<g>
		<g>
			<path class="st0" d="M135.4,105V81.8c0-1.7-1-4-2.1-5.1l-14.5-14.5c-1.2-1.2-3.5-2.1-5.1-2.1H67.3c-1.7,0-3,1.4-3,3v13.4
				c0,1.7,0,4.3,0,6V102c0,1.7,0,4.4,0,6v46.2c0,1.7,1.3,3,3,3h65.1c1.6,0,3-1.3,3-3v-14.3"/>
		</g>
		<g>
			<path class="st0" d="M116.6,75.8c0,1.7,1.3,3,3,3h12.8c1.6,0,2-1,0.9-2.1l-14.5-14.5c-1.2-1.2-2.1-0.8-2.1,0.9V75.8z"/>
		</g>
		<g>
			<g>
				<line class="st0" x1="70.6" y1="80.5" x2="90.9" y2="80.5"/>
			</g>
			<g>
				<line class="st0" x1="70.6" y1="85.2" x2="99.5" y2="85.2"/>
			</g>
			<g>
				<line class="st0" x1="70.6" y1="89.9" x2="93.5" y2="89.9"/>
			</g>
		</g>
		<g>
			<g>
				<line class="st0" x1="145" y1="140.2" x2="106" y2="140.2"/>
			</g>
			<g>
				<path class="st0" d="M160.7,104.5v32.6c0,1.7-1.3,3-3,3h-6.2"/>
			</g>
			<g>
				<line class="st0" x1="79.5" y1="128.7" x2="79.5" y2="104.5"/>
			</g>
			<g>
				<path class="st0" d="M144.5,104.5H82.6c-1.7,0-2.9,0.5-2.9,1.2c0.1,0.7,2.7,2.9,4.1,3.7l29.5,18.8c1.4,0.9,3.8,1.9,5.4,2.3
					l2.7,0c1.6-0.4,4.1-1.4,5.4-2.3l17.7-11.3"/>
			</g>
			<g>
				<path class="st0" d="M151.7,112.5l4.7-3c1.4-0.9,2.9-2,3.4-2.4s0.9-1.8,0.9-1.9s0-0.2,0-0.3c0-0.1-1.4-0.3-3.1-0.3h-5.9"/>
			</g>
		</g>
		<g>
			<path class="st0" d="M74,150.4c-1.7,0-3-1.4-3-3v-15.6c0-1.7,1.3-3,3-3h28.6c1.7,0,3,1.3,3,3v15.6c0,1.6-1.3,3-3,3H74z"/>
		</g>
		<g>
			<circle class="st0" cx="76.3" cy="71.7" r="4"/>
		</g>
		<g>
			<g>
				<line class="st0" x1="75.5" y1="135.5" x2="86.5" y2="135.5"/>
			</g>
			<g>
				<line class="st0" x1="75.5" y1="140.1" x2="91.1" y2="140.1"/>
			</g>
			<g>
				<line class="st0" x1="75.5" y1="144.8" x2="87.8" y2="144.8"/>
			</g>
		</g>
		<g>
			<g>
				<g>
					<path class="st1" d="M145.3,75.3c-0.1,0.1-0.2,1.3-0.2,2.5c0,1.2,1.4,2.2,3,2.2h0.6c1.6,0,3-1,3-2.2c0-1.2-0.1-2.3-0.2-2.5
						c-0.1-0.1-1.7-0.3-3.1-0.3S145.3,75.1,145.3,75.3z"/>
				</g>
				<g>
					<path class="st1" d="M148.6,146.4c1.6,0,3-1.4,3-3V82.9c0-1.7-1.4-3-3-3h-0.6c-1.6,0-3,1.3-3,3v60.5c0,1.6,1.4,3,3,3H148.6z"/>
				</g>
			</g>
			<g>
				<path class="st1" d="M148.4,145.8c-1.2,0-1.2,0-1.2,0c-1.2,0.3-1.6,1.7-1,3.3l1.1,2.9c0.6,1.5,1.6,1.5,2.2,0l1.1-2.9
					c0.6-1.5,0.1-3-1-3.3C149.5,145.8,149.5,145.8,148.4,145.8z"/>
			</g>
			<g>
				<g>
					<path class="st1" d="M145.1,82.6c0,1.6,1.4,2.8,3,2.8h0.6c1.6,0,3-1.3,3-2.8c0-1.6-1.4-2.8-3-2.8h-0.6
						C146.4,79.8,145.1,81.1,145.1,82.6z"/>
				</g>
			</g>
			<g>
				<path class="st1" d="M148.9,153.4c0.3-0.8,0.2-1.4-0.1-1.4c0,0,0,0-0.3,0c-0.4,0-0.4,0-0.4,0c-0.4,0-0.5,0.7-0.2,1.4
					S148.6,154.2,148.9,153.4z"/>
			</g>
		</g>
	</g>
</g>
</svg>
