<?xml version="1.0" encoding="utf-8"?>
<!-- Generator: Adobe Illustrator 21.0.0, SVG Export Plug-In . SVG Version: 6.00 Build 0)  -->
<svg version="1.1" id="Layer_1" xmlns="http://www.w3.org/2000/svg" xmlns:xlink="http://www.w3.org/1999/xlink" x="0px" y="0px"
	 viewBox="0 0 216 216" style="enable-background:new 0 0 216 216;" xml:space="preserve">
<style type="text/css">
	.st0{fill:none;stroke:#4C8CCA;stroke-width:1.5;stroke-linecap:round;stroke-linejoin:round;stroke-miterlimit:10;}
</style>
<path class="st0" d="M116.9,135c-4.6,1.8-9.6,2.8-14.8,2.8c-22.2,0-40.1-18-40.1-40.2c0-22.2,18-40.1,40.1-40.1
	c22.2,0,40.2,18,40.2,40.1c0,6-1.3,11.6-3.6,16.7"/>
<path class="st0" d="M115,125.5c-3.9,1.8-8.3,2.8-12.9,2.8c-16.9,0-30.7-13.7-30.7-30.7c0-16.9,13.7-30.6,30.7-30.6
	c16.9,0,30.7,13.7,30.7,30.6c0,3.5-0.6,6.9-1.7,10.1"/>
<path class="st0" d="M111.1,87v-2.1c0-3.6-2.9-6.5-6.5-6.5h-5.3c-3.6,0-6.5,2.9-6.5,6.5v4.5c0,2.1,1.6,3.8,3.7,5.1l10,3.8"/>
<path class="st0" d="M92.8,106.3v2.1c0,3.6,2.9,6.5,6.5,6.5h5.3c3.6,0,6.5-2.9,6.5-6.5v-4.5c0-2.1-1.7-3.9-3.8-5.2L97.8,95"/>
<line class="st0" x1="102.3" y1="74.4" x2="102.3" y2="119.1"/>
<path class="st0" d="M149.4,148.9v-2.6c2.5-1.8,4.1-4.8,4.1-8.1v-17.5l-0.2-3.9c0-2.1-1.7-3.8-3.8-3.8c-2.1,0-3.8,0.7-3.8,2.8V115
	c0-2.1-1.7-3.7-3.8-3.7c-2.1,0-3.7,1.7-3.7,3.7v-1.9c0-2.1-1.7-3.8-3.8-3.8c-2.1,0-3.8,1.7-3.8,3.8v2.1c0,0,0-21.6,0-21.6
	c0-2.1-1.7-3.9-3.9-3.9s-3.9,1.7-3.9,3.9l0,37.9l-0.1-1.8v-7.7c0-3.2-2.6-5.7-5.7-5.7h-1.9c-0.1,0,0.1,0,0,0v7.2c0,0,0,0,0,0v9.5
	l10.9,12.9v-0.3c1.3,1.2,2.8,2.1,4.5,2.5v0.9"/>
<g>
	<polyline class="st0" points="153.9,159.3 153.9,148.9 122.5,148.9 122.5,159.3 	"/>
	<polyline class="st0" points="153.9,159.3 153.9,148.9 122.5,148.9 122.5,159.3 	"/>
</g>
</svg>
