<?xml version="1.0" encoding="utf-8"?>
<!-- Generator: Adobe Illustrator 21.0.0, SVG Export Plug-In . SVG Version: 6.00 Build 0)  -->
<svg version="1.1" id="Layer_1" xmlns="http://www.w3.org/2000/svg" xmlns:xlink="http://www.w3.org/1999/xlink" x="0px" y="0px"
	 viewBox="0 0 216 216" style="enable-background:new 0 0 216 216;" xml:space="preserve">
<style type="text/css">
	.st0{fill:none;stroke:#4C8CCA;stroke-width:1.5;stroke-linecap:round;stroke-linejoin:round;stroke-miterlimit:10;}
</style>
<path class="st0" d="M112.2,144.8l0-4.3l9.6-9.6c0.6-0.6,1.1-1.2,1.4-1.8 M127.1,81.4l3.3-1.3c1.8-0.7,3.8,0.2,4.5,2l0,0
	c0.7,1.8-0.2,3.8-2,4.5l-6.1,2.4"/>
<path class="st0" d="M126.7,116.7v10.2c0,1.2-1,2.3-2.3,2.3h-24.1 M90.5,99.1V60.2c0-1.2,1-2.3,2.3-2.3h31.6c1.2,0,2.3,1,2.3,2.3
	v29.8"/>
<path class="st0" d="M95.5,118.4v-9.1 M95.5,98.9V67.6h26.1v51.4H97.1"/>
<path class="st0" d="M102.6,63h12.1 M107,123.2h3.2"/>
<path class="st0" d="M132.9,92c0.7,1.8-0.2,3.8-2,4.5l-2.5,0.8c-1.8,0.7-3.8-0.2-4.5-2l0,0c-0.7-1.8,0.2-3.8,2-4.5l2.5-0.8
	C130.2,89.4,132.2,90.2,132.9,92L132.9,92L132.9,92z M131.5,111c0.7,1.8-0.2,3.8-2,4.5l-2.5,0.8c-1.8,0.7-3.8-0.2-4.5-2l0,0
	c-0.7-1.8,0.2-3.8,2-4.5l2.5-0.8C128.7,108.3,130.8,109.2,131.5,111L131.5,111L131.5,111z M132.2,101.3c0.7,1.8-0.2,3.8-2,4.5
	l-2.5,0.8c-1.8,0.7-3.8-0.2-4.5-2l0,0c-0.7-1.8,0.2-3.8,2-4.5l2.5-0.8C129.5,98.6,131.5,99.5,132.2,101.3L132.2,101.3L132.2,101.3z
	 M96.5,144.5c2.2-3.3,3.6-7.7,3.6-12.5c0-7.1-3-13.3-7.4-16.6l2.2-6.5l1.5,0.1c3.9,0.1,7.1-3,7.1-6.9l0-2.3c0-0.1,0-0.2,0-0.3
	l-14-0.2l0,0.1l0,0l-2,4.4l-2.2,4.9l0.1,0l-2.1,4.8l0,0v31.5"/>
<path class="st0" d="M81.4,149.2V145h35.8v4.2 M80.1,159v-9.6h38.5v9.6"/>
</svg>
