<?xml version="1.0" encoding="utf-8"?>
<!-- Generator: Adobe Illustrator 21.0.0, SVG Export Plug-In . SVG Version: 6.00 Build 0)  -->
<svg version="1.1" id="Layer_1" xmlns="http://www.w3.org/2000/svg" xmlns:xlink="http://www.w3.org/1999/xlink" x="0px" y="0px"
	 viewBox="0 0 216 216" style="enable-background:new 0 0 216 216;" xml:space="preserve">
<style type="text/css">
	.st0{fill:none;stroke:#4C8CCA;stroke-width:1.5;stroke-linecap:round;stroke-linejoin:round;stroke-miterlimit:10;}
</style>
<path class="st0" d="M158.9,115.5c0.4-2.4,0.6-4.8,0.6-7.3c0-25.5-20.7-46.2-46.2-46.2c-25.5,0-46.2,20.7-46.2,46.2
	c0,25.5,20.7,46.2,46.2,46.2c16,0,30.1-8.1,38.3-20.4"/>
<path class="st0" d="M101.3,114.5c15.2-2,30.7-0.2,45.2,5.4"/>
<path class="st0" d="M70.2,124.4c3.4-1.8,6.8-3.4,10.3-4.7"/>
<path class="st0" d="M79.9,76.8c25.2,17.3,40.2,45.9,40.1,76.4"/>
<path class="st0" d="M120.4,85.8c-8.4-5.7-15.9-12.8-22.2-21"/>
<path class="st0" d="M158.6,102.1c-6.9-1-13.7-2.9-20.1-5.4"/>
<ellipse class="st0" cx="129.9" cy="89.7" rx="9.9" ry="9.9"/>
<ellipse class="st0" cx="155.4" cy="124.8" rx="9.9" ry="9.9"/>
<circle class="st0" cx="91.2" cy="117.9" r="9.9"/>
</svg>
