<?xml version="1.0" encoding="utf-8"?>
<!-- Generator: Adobe Illustrator 21.0.0, SVG Export Plug-In . SVG Version: 6.00 Build 0)  -->
<svg version="1.1" id="Layer_1" xmlns="http://www.w3.org/2000/svg" xmlns:xlink="http://www.w3.org/1999/xlink" x="0px" y="0px"
	 viewBox="0 0 216 216" style="enable-background:new 0 0 216 216;" xml:space="preserve">
<style type="text/css">
	.st0{fill:none;stroke:#4C8CCA;stroke-width:1.5;stroke-linecap:round;stroke-linejoin:round;}
	.st1{fill:none;stroke:#4C8CCA;stroke-width:1.5;stroke-linejoin:round;}
</style>
<g>
	<path class="st0" d="M76.8,82.6H70c-1.7,0-3,1.3-3,3v47.5v11.8c0,1.7,1.3,3,3,3h16.2h59h16.2c1.7,0,3-1.3,3-3v-11.8V85.6
		c0-1.7-1.3-3-3-3h-15.2l-2.8-10c-0.7-1.8-1.3-3-3-3H111c-1.7,0-2.5,1.3-3,3l-2.8,10H90.3"/>
	<g>
		<circle class="st0" cx="125.7" cy="115.3" r="22.3"/>
		<circle class="st0" cx="125.7" cy="115.3" r="16.3"/>
		<path class="st0" d="M114,115.3c0-6.4,5.2-11.7,11.7-11.7"/>
	</g>
	<rect x="112.7" y="74.6" class="st0" width="26" height="9.3"/>
	<polyline class="st1" points="149.7,83.3 149.7,77.9 160,77.9 160,83.3 	"/>
	<line class="st0" x1="94" y1="90.6" x2="94" y2="137.3"/>
	<path class="st0" d="M107.7,73.8l-3.5,12.8c-0.6,1.5-2.9,3-4.3,3h-26c-1.4,0-2.6-1.2-2.6-2.6v-3.9"/>
	<ellipse class="st0" cx="83.5" cy="82.1" rx="6.8" ry="3.8"/>
</g>
</svg>
